<?xml version="1.0" standalone="no"?>
<svg xmlns="http://www.w3.org/2000/svg" viewBox="0 0 102.458 36" width="102.458" height="36"><g fill="#ead017" color="#ead017" transform="translate(0 6) scale(0.4705883)"><svg width="44.0" height="51.0" x="0.0" y="0.0" viewBox="0 0 44 51"><path fill="currentColor" fill-rule="evenodd" d="M21.998 0L0 12.571v25.143l4.19 2.395V15.002L21.999 4.827 39.81 15.002v20.28L21.998 45.459l-9.427-5.388V19.865l9.427-5.386 9.43 5.386v10.553l-9.43 5.387-1.045-.597V24.73l5.268-3.012-4.223-2.413-5.236 2.994v15.34l5.236 2.993 13.62-7.784V17.435l-13.62-7.781-13.617 7.78v25.068l13.617 7.784L44 37.714V12.571z"></path></svg></g><path fill="#000000" fill-rule="nonzero" d="M10.79 2.44Q12.26 3.91 12.26 6.77Q12.26 9.62 10.79 11.10Q9.31 12.58 6.62 12.58L6.62 12.58L3.34 12.58L3.34 18.05L0 18.05L0 0.96L6.62 0.96Q9.31 0.96 10.79 2.44ZM8.93 6.77L8.93 6.77Q8.93 3.94 6.46 3.94L6.46 3.94L3.34 3.94L3.34 9.58L6.46 9.58Q7.66 9.58 8.29 8.93Q8.93 8.28 8.93 6.77ZM22.25 11.86L22.25 11.86L22.25 10.61Q22.25 8.83 21.73 7.90Q21.22 6.96 19.58 6.96L19.58 6.96Q16.94 6.96 16.94 10.51L16.94 10.51L16.94 11.76Q16.94 15.58 19.58 15.58L19.58 15.58Q21.29 15.58 21.82 14.30L21.82 14.30Q22.25 13.30 22.25 11.86ZM25.37 11.14L25.37 11.14Q25.37 15.58 23.69 17.09L23.69 17.09Q22.27 18.38 19.58 18.38L19.58 18.38Q16.15 18.38 14.95 16.37L14.95 16.37Q13.82 14.52 13.82 11.14L13.82 11.14Q13.82 7.97 14.95 6.17L14.95 6.17Q16.20 4.15 19.50 4.15Q22.80 4.15 24.08 5.92Q25.37 7.68 25.37 11.14ZM35.14 4.39L35.14 4.39L34.27 7.46Q33.91 7.32 33.46 7.32L33.46 7.32Q32.26 7.32 30.50 8.35L30.50 8.35L30.50 18.05L27.38 18.05L27.38 4.34L29.71 4.34L30.43 5.54L33.74 4.18Q33.98 4.15 34.39 4.15Q34.80 4.15 35.14 4.39ZM43.08 15.41L43.08 18.05L41.14 18.05Q39.36 18.05 38.44 16.99Q37.51 15.94 37.51 14.47L37.51 14.47L37.51 7.27L36.19 7.27L36.19 4.90L37.51 4.90L37.51 2.21L40.63 2.21L40.63 4.90L42.84 4.90L42.84 7.27L40.63 7.27L40.63 14.28Q40.63 15.41 41.71 15.41L41.71 15.41L43.08 15.41ZM55.10 4.25L55.10 18.05L53.02 18.05L52.06 16.39L48.72 18.19Q45.94 18.19 44.98 16.18L44.98 16.18Q44.50 15.19 44.32 14.05Q44.14 12.91 44.14 11.68Q44.14 10.44 44.16 9.85Q44.18 9.26 44.28 8.48Q44.38 7.70 44.56 7.18Q44.74 6.65 45.07 6.08Q45.41 5.52 45.89 5.18L45.89 5.18Q46.97 4.44 48.70 4.44L48.70 4.44L51.98 4.44L55.10 4.25ZM49.61 14.90L51.98 13.68L51.98 7.25L49.61 7.25Q48.29 7.25 47.77 8.26Q47.26 9.26 47.26 11.27Q47.26 13.27 47.75 14.09Q48.24 14.90 49.61 14.90L49.61 14.90ZM61.49 0L61.49 18.05L58.37 18.07L58.37 0L61.49 0ZM73.51 15.36L73.51 18.05L66.05 18.05Q64.82 18.05 64.16 17.53Q63.50 17.02 63.50 16.08Q63.50 15.14 64.30 14.11L64.30 14.11L70.01 7.03L64.30 7.03L64.30 4.34L73.75 4.34L73.75 6.72L66.94 15.36L73.51 15.36Z" transform="translate(28.706, 8.976)"></path></svg>